<svg xmlns="http://www.w3.org/2000/svg" viewBox="0 0 800.5 800"><defs><style>.a{fill:none;stroke:#000;stroke-linecap:round;stroke-linejoin:round;stroke-width:8px;}</style></defs><path d="M679.62,16.25,783.75,120.38V680.12L679.62,784.25H119.88L15.75,680.12V120.38L119.88,16.25H679.62m6.63-16h-573L-.25,113.75v573l113.5,113.5h573l113.5-113.5v-573L686.25.25Z" transform="translate(0.25 -0.25)"/><path d="M514,8.25A278,278,0,0,1,792.25,286.5V514A278,278,0,0,1,514,792.25H286.5A278,278,0,0,1,8.25,514V286.5A278,278,0,0,1,286.5,8.25H514m0-8H286.5C128.41.25.25,128.41.25,286.5V514c0,158.09,128.16,286.25,286.25,286.25H514c158.09,0,286.25-128.16,286.25-286.25V286.5C800.25,128.41,672.09.25,514,.25Z" transform="translate(0.25 -0.25)"/><path class="a" d="M117.75,738.25h0Z" transform="translate(0.25 -0.25)"/><path class="a" d="M115.75,62.25h0Z" transform="translate(0.25 -0.25)"/></svg>