<svg xmlns="http://www.w3.org/2000/svg" viewBox="0 0 800 800.5"><defs><style>.a{fill:none;stroke:#000;stroke-linecap:round;stroke-linejoin:round;stroke-width:8px;}</style></defs><path d="M679.87,16,784,120.13V679.87L679.87,784H120.13L16,679.87V120.13L120.13,16H679.87M686.5,0h-573L0,113.5v573L113.5,800h573L800,686.5v-573L686.5,0Z"/><path d="M513.75,8.5A278,278,0,0,1,792,286.75v227.5A278,278,0,0,1,513.75,792.5H286.25A278,278,0,0,1,8,514.25V286.75A278,278,0,0,1,286.25,8.5h227.5m0-8H286.25C128.16.5,0,128.66,0,286.75v227.5C0,672.34,128.16,800.5,286.25,800.5h227.5C671.84,800.5,800,672.34,800,514.25V286.75C800,128.66,671.84.5,513.75.5Z"/><path class="a" d="M62,118v0Z"/><path class="a" d="M738,116v0Z"/></svg>