<svg xmlns="http://www.w3.org/2000/svg" viewBox="0 0 800 800"><defs><style>.a{fill:none;stroke:#000;stroke-miterlimit:10;stroke-width:8px;}</style></defs><path d="M693.63,16,784,106.37V693.63L693.63,784H106.37L16,693.63V106.37L106.37,16H693.63m6.63-16H99.74L0,99.74V700.26L99.74,800H700.26L800,700.26V99.74L700.26,0Z"/><rect x="40.1" y="380.6" width="38.79" height="38.79" transform="translate(-265.42 159.23) rotate(-45)"/><rect x="721.1" y="380.6" width="38.79" height="38.79" transform="translate(-65.96 640.77) rotate(-45)"/><path class="a" d="M639.74,740H160.26A100.26,100.26,0,0,0,60,639.74V160.26A100.26,100.26,0,0,0,160.26,60H639.74A100.26,100.26,0,0,0,740,160.26V639.74A100.26,100.26,0,0,0,639.74,740Z"/></svg>